name processed_emg_signals						
nRows=77						
nColumns=7						
 						
endheader						
time	RGLTMED	RRF	RADDLONG	RST	RTA	RGM
1.28	0.102304153	0.113833765	0.074694653	0.195444359	0.622514262	0.053386341
1.281	0.103981576	0.114848819	0.075267455	0.194776358	0.617697097	0.053455714
1.282	0.105660684	0.115840409	0.07582594	0.19418693	0.612689089	0.053530333
1.283	0.107340497	0.116807526	0.076369531	0.193673336	0.607493652	0.053610716
1.284	0.109020028	0.11774917	0.076897666	0.19323278	0.602114367	0.05369739
1.285	0.110698285	0.118664359	0.077409794	0.192862407	0.59655498	0.05379089
1.286	0.112374268	0.119552125	0.077905381	0.192559314	0.590819397	0.053891756
1.287	0.114046975	0.120411519	0.078383905	0.192320552	0.584911684	0.054000538
1.288	0.115715396	0.121241609	0.078844862	0.192143129	0.578836066	0.054117788
1.289	0.117378523	0.122041485	0.079287765	0.192024017	0.572596918	0.054244065
1.29	0.11903534	0.122810258	0.079712143	0.191960157	0.566198768	0.054379934
1.291	0.120684834	0.123547065	0.080117546	0.191948462	0.55964629	0.054525963
1.292	0.12232599	0.124251067	0.080503542	0.191985822	0.552944302	0.054682722
1.293	0.123957793	0.124921451	0.080869717	0.19206911	0.546097762	0.054850786
1.294	0.125579229	0.125557435	0.081215682	0.192195185	0.539111761	0.055030731
1.295	0.127189288	0.126158264	0.081541066	0.1923609	0.531991523	0.055223135
1.296	0.128786962	0.126723218	0.081845521	0.1925631	0.524742396	0.055428576
1.297	0.130371246	0.127251606	0.082128722	0.192798633	0.517369849	0.055647633
1.298	0.131941141	0.127742773	0.082390366	0.193064353	0.509879465	0.055880882
1.299	0.133495653	0.1281961	0.082630175	0.193357123	0.502276937	0.0561289
1.3	0.135033796	0.128611003	0.082847894	0.193673819	0.49456806	0.056392259
1.301	0.136554589	0.128986938	0.083043292	0.194011338	0.486758726	0.056671532
1.302	0.138057063	0.129323398	0.083216165	0.194366599	0.478854918	0.056967282
1.303	0.139540255	0.129619918	0.083366331	0.194736549	0.470862699	0.057280071
1.304	0.141003214	0.129876071	0.083493637	0.195118168	0.46278821	0.057610455
1.305	0.142444999	0.130091476	0.083597951	0.195508472	0.45463766	0.057958983
1.306	0.143864682	0.130265791	0.083679171	0.195904516	0.446417319	0.058326194
1.307	0.145261349	0.130398721	0.083737219	0.196303401	0.438133511	0.058712623
1.308	0.146634097	0.130490012	0.083772042	0.196702278	0.429792603	0.059118791
1.309	0.147982039	0.130539457	0.083783614	0.197098347	0.421401002	0.059545212
1.31	0.149304306	0.130546893	0.083771936	0.197488869	0.412965141	0.059992387
1.311	0.150600042	0.130512205	0.083737034	0.197871161	0.404491478	0.060460806
1.312	0.151868411	0.130435322	0.083678957	0.198242607	0.395986481	0.060950946
1.313	0.153108593	0.13031622	0.083597784	0.198600656	0.387456622	0.061463269
1.314	0.154319791	0.130154921	0.083493616	0.198942828	0.378908371	0.061998222
1.315	0.155501224	0.129951495	0.083366581	0.199266717	0.370348184	0.062556239
1.316	0.156652134	0.129706058	0.08321683	0.199569992	0.361782498	0.063137735
1.317	0.157771786	0.129418772	0.083044541	0.199850404	0.353217721	0.063743108
1.318	0.158859465	0.129089847	0.082849912	0.200105781	0.344660223	0.064372739
1.319	0.159914482	0.128719537	0.082633169	0.20033404	0.336116329	0.06502699
1.32	0.16093617	0.128308143	0.082394558	0.20053318	0.327592312	0.065706202
1.321	0.16192389	0.127856013	0.082134349	0.20070129	0.319094385	0.066410696
1.322	0.162877026	0.127363537	0.081852834	0.200836549	0.31062869	0.067140772
1.323	0.163794991	0.126831151	0.081550327	0.200937225	0.302201295	0.06789671
1.324	0.164677223	0.126259334	0.081227161	0.201001681	0.293818185	0.068678763
1.325	0.16552319	0.12564861	0.080883693	0.201028373	0.285485253	0.069487166
1.326	0.166332387	0.124999543	0.080520297	0.20101585	0.277208295	0.070322127
1.327	0.167104341	0.124312739	0.080137367	0.200962757	0.268993005	0.071183829
1.328	0.167838605	0.123588846	0.079735316	0.200867835	0.260844963	0.072072433
1.329	0.168534765	0.122828548	0.079314575	0.200729921	0.252769635	0.072988073
1.33	0.169192436	0.122032571	0.07887559	0.200547946	0.244772363	0.073930855
1.331	0.169811268	0.121201675	0.078418827	0.200320939	0.236858361	0.074900863
1.332	0.170390937	0.12033666	0.077944764	0.200048024	0.229032707	0.07589815
1.333	0.170931155	0.119438356	0.077453897	0.199728419	0.221300343	0.076922745
1.334	0.171431666	0.118507631	0.076946734	0.199361438	0.213666064	0.077974646
1.335	0.171892245	0.117545382	0.076423798	0.198946487	0.206134517	0.079053826
1.336	0.1723127	0.116552538	0.075885621	0.198483068	0.198710196	0.080160229
1.337	0.172692873	0.115530057	0.075332752	0.19797077	0.191397437	0.08129377
1.338	0.17303264	0.114478924	0.074765745	0.197409279	0.184200416	0.082454335
1.339	0.173331908	0.113400151	0.074185169	0.196798364	0.177123143	0.083641782
1.34	0.173590619	0.112294776	0.073591599	0.196137888	0.17016946	0.084855939
1.341	0.173808748	0.111163856	0.072985618	0.195427796	0.16334304	0.086096606
1.342	0.173986303	0.110008474	0.072367817	0.194668121	0.156647379	0.087363553
1.343	0.174123329	0.108829729	0.071738795	0.193858978	0.150085799	0.08865652
1.344	0.1742199	0.107628739	0.071099154	0.193000565	0.143661446	0.089975219
1.345	0.174276126	0.10640664	0.070449501	0.19209316	0.137377281	0.09131933
1.346	0.174292151	0.105164579	0.069790448	0.191137119	0.131236089	0.092688507
1.347	0.174268153	0.103903719	0.06912261	0.190132873	0.12524047	0.094082371
1.348	0.174204341	0.102625231	0.068446602	0.18908093	0.11939284	0.095500517
1.349	0.174100961	0.101330297	0.067763041	0.187981871	0.11369543	0.096942509
1.35	0.173958289	0.100020106	0.067072547	0.186836345	0.10815029	0.098407881
1.351	0.173776636	0.098695851	0.066375735	0.185645072	0.102759283	0.099896139
1.352	0.173556346	0.097358732	0.065673222	0.18440884	0.097524085	0.10140676
1.353	0.173297796	0.096009948	0.064965623	0.1831285	0.092446193	0.102939193
1.354	0.173001396	0.094650699	0.064253548	0.181804967	0.087526915	0.104492858
1.355	0.172667588	0.093282185	0.063537605	0.180439219	0.082767381	0.106067146
1.356	0.172296847	0.091905602	0.062818399	0.17903229	0.078168535	0.10766142
